<?xml version="1.0" encoding="UTF-8"?><svg id="_レイヤー_2" xmlns="http://www.w3.org/2000/svg" viewBox="0 0 108.81 108.81"><defs><style>.cls-1{fill:#c7161d;}</style></defs><g id="_レイヤー_2-2"><path class="cls-1" d="M54.41,0c-11.3,0-21.81,3.47-30.52,9.39L8.35,1.77l-3.22,6.55,12.43,6.1C6.77,24.37,0,38.61,0,54.41c0,30,24.41,54.41,54.41,54.41s54.41-24.41,54.41-54.41S84.41,0,54.41,0Zm18.09,41.38c1.51-8.89,9.14-12.17,13.95-12.05,8.7,.21,12.86,6.73,14.05,15.26-2.99,.64-34.98,7.52-34.98,7.52l9.59,44.6c-6.25,3.07-13.27,4.8-20.69,4.8-25.97,0-47.11-21.13-47.11-47.11,0-14.71,6.78-27.85,17.37-36.5l47.83,23.47Zm9.22,51.38l-7.53-35.04,27.26-5.86c.05,.85,.07,1.7,.07,2.55,0,15.8-7.83,29.8-19.8,38.35Z"/></g></svg>